<svg version="1.2" xmlns="http://www.w3.org/2000/svg" viewBox="32.000000000000014 175.00000000000003 420.99999999999994 124.99999999999997" width="500" height="148.45605700712588">
	<style>
		.s0 { fill: #2d7dc0 } 
		.s1 { fill: #87c77b } 
		.s2 { fill: #57585a } 
	</style>
	<g id="Layer 1">
		<g id="&lt;Group&gt;">
			<path id="&lt;Path&gt;" class="s0" d="m74.46 192.1c9.82 1.47 16.65 4.05 19.92 5.28l0.51 0.19c0.6-1.58 1.36-3.57 1.89-4.99 1.08-2.9 1.63-3.38 2.8-4.47 0.7-0.65 0.43-1.53-0.66-1.53h-23.15c-0.83 0-1.16 0.58-0.91 1.35 0.27 0.8 0.51 1.81-0.06 3.33q-0.16 0.4-0.34 0.84z"/>
			<path id="&lt;Compound Path&gt;" class="s1" d="m56.11 228.56c1.36 0.85 2.4 1.4 2.68 1.18 0.25-0.15 0.04-0.33-0.27-0.65-0.44-0.49-0.56-0.59-1.59-1.79-6.54-7.5-4.74-12.45 0.46-13.41 9.27-1.72 22.16 3.16 28.41 5.63q0.26 0.11 0.51 0.21 0-0.02 0-0.02c9.38 3.81 18.9 10.06 25.8 17.23 5.15 5.34 8.83 11.21 9.93 16.97 0.55 3 0.08 5.69-1.33 7.97q1.1-0.66 2.15-1.38c4.74-3.33 9.91-9.43 9.91-20.11q0-2.8-0.49-6.05c-0.44-2.6-1.18-4.45-2.88-8.15-1.05-2.32-3.44-6.08-6.35-8.93-8.65-7.62-18.86-13.69-28.46-17.5q-0.15-0.06-0.31-0.12-0.03-0.02-0.07-0.02c-3.01-1.13-9.87-3.88-20.13-5.41q-0.56-0.07-1.11-0.14c-6.68-0.72-13.36-0.2-18.61 2.91-4.75 2.82-7.76 7.31-8.49 12.62-0.09 0.63-0.16 1.23-0.16 1.85-0.08 6.81 4.55 13.31 10.4 17.11z"/>
			<path id="&lt;Compound Path&gt;" class="s2" d="m277.66 215.17c0-8.19-2.99-10.42-7.06-10.95-2.91-0.38-8.21-0.42-12.13 0.63-3.97 1.1-5.17 3.07-5.17 3.07 0 0-0.03-3.56-3.25-3.59-1.42 0-3 0-4.32 0-1.67 0-2.91 0-2.91 0 0 0 1.87 1.55 1.85 4.38-0.01 2.26 0 33.39 0 33.39 0 0 3.53-0.02 6.02 0h0.29c1.93 0 3.52-1.58 3.52-3.52v-0.51c0-3 0-24.64 0-24.64 0 0 3.29-2.67 7.64-2.58 1.91 0.03 3.82 0.5 4.73 1.55 1.04 1.21 1 3.37 1 6 0 2.61 0 23.7 0 23.7 0 0 3.39-0.02 5.44 0l0.89-0.01c1.91 0 3.48-1.54 3.48-3.47l-0.02-0.7zm-106.08-23.09h-15.37c0 0 2.35 2.1 2.35 5.66 0 3.55 0 44.3 0 44.3h12.74c23.82 0.15 27.91-10.16 28-24.79 0.08-14.6-2.51-25.03-27.72-25.17zm17.26 24.91h-0.02q0 0.11 0 0.22 0 0.1 0 0.2h0.02v0.03c-0.1 15.12-8.02 15.9-11.79 16.53q-1.87 0.34-6.01 0.31l-2.65-0.01v-34.2c0 0 6.37-0.36 9.48 0.04 3.09 0.4 11.05 0.25 10.97 16.85zm33.11-13.45c-17.88 0-18.77 13.25-18.8 19.58q0 0.01 0 0.04v0.02c-0.04 6.34 0.87 19.81 18.58 19.81 17.71 0 18.75-13.26 18.8-19.58q0-0.03 0-0.03v-0.04c0.04-6.33-0.69-19.8-18.58-19.8zm8.8 19.77c-0.02 2.22-0.3 12.6-8.98 12.58-8.68-0.08-8.85-10.47-8.84-12.68 0.02-2.22 0.31-12.6 8.98-12.58 8.69 0.08 8.85 10.47 8.84 12.68zm86.45-19.58h-4.74c-2.13 0-2.25 2.92-2.25 2.92-2.6-2.17-5.88-2.82-9.81-2.84-2.85-0.02-8.32 0.03-12.38 3.38-3.47 2.87-6 7.96-6.03 15.88-0.06 10.06 2.98 15.55 7.42 17.9 3.14 1.67 9.28 1.7 11.46 1.57 5.92-0.35 7.55-2.05 7.55-2.05 0 0 0.17 3.8-0.32 5.65-0.88 3.37-3.18 5.88-8.5 5.86-5.33-0.05-6.23 0-8.96 0-2.75-0.02-4.18 0.09-4.86 2.07-0.68 1.98-0.85 5.03-0.85 5.03 0.41 0.16 6.37 0.03 14.61 0.08 8.24 0.05 13.25-2.2 16.36-7.92 1.92-3.5 2.33-8.71 2.35-15.14 0 0 0-18.64 0-25.75q0-0.65 0-1.14v-0.83q0-0.2 0-0.39c0.04-2.78 1.87-4.28 1.87-4.28 0 0-1.25 0-2.92-0.01q0 0.01 0 0.01zm-8.83 28.87c0 0-2.82 2.9-7.95 2.68-2.48-0.12-4.71-1.11-6.12-3.04-1.56-2.09-2.31-5.16-2.28-8.96 0.05-7.9 2.2-9.6 3.41-10.67 1.47-1.31 3.81-1.72 6.11-1.7 3.12 0.01 6.83 1.62 6.83 3.98 0 2.37 0 17.71 0 17.71zm116.26-29.06c-17.89 0-18.77 13.25-18.81 19.58q0 0.01 0 0.04v0.02c-0.03 6.34 0.88 19.81 18.59 19.81 17.71 0 18.76-13.26 18.8-19.58q0.01-0.03 0.01-0.03v-0.04c0.03-6.33-0.7-19.8-18.59-19.8zm8.8 19.77c-0.01 2.22-0.3 12.6-8.98 12.58-8.68-0.08-8.85-10.47-8.83-12.68 0.01-2.22 0.3-12.6 8.98-12.58 8.68 0.08 8.85 10.47 8.83 12.68zm-49.73-19.77c-17.89 0-18.76 13.25-18.81 19.58q0 0.01 0 0.04v0.02c-0.03 6.34 0.87 19.81 18.59 19.81 17.7 0 18.77-13.26 18.8-19.58q0-0.03 0-0.03v-0.04c0.03-6.33-0.69-19.8-18.58-19.8zm8.8 19.77c-0.01 2.22-0.3 12.6-8.99 12.58-8.66-0.08-8.84-10.47-8.83-12.68 0.02-2.22 0.3-12.6 8.98-12.58 8.68 0.08 8.85 10.47 8.84 12.68zm-26.41-31.23h-11.07l-17.52 20.97c-0.71 0.94-1.13 2.08-1.13 3.34 0 1.22 0.4 2.35 1.08 3.26 0 0 14.98 19.31 15.76 20.19 0.78 0.87 1.87 2.23 4.42 2.25 2.57 0.01 10.45 0 10.45 0l-21.75-26.52zm-30.34 0h-12.16c0 0 2.34 2.1 2.34 5.66v2.42c0 30.97 0 41.93 0 41.93 0 0 3.52-0.02 6.01 0h0.28c1.95 0 3.53-1.58 3.53-3.51v-0.51z"/>
			<path id="&lt;Compound Path&gt;" class="s2" d="m182.93 264.42v3.43h-4.31v-3.43zm0 5.52h-4.31c0 12.08 0 16.41 0 16.41 0 0 1.54-0.01 2.64 0h0.13c0.85 0 1.54-0.68 1.54-1.54v-0.23zm-11.04 4.86c2.82 0.02 3.57-1.99 3.66-4.09 0.22-5.69-1.88-6.23-11.37-6.28h-6.75c0 0 1.04 0.91 1.04 2.48v0.85c0 3.82 0.01 18.58 0.01 18.58h4.23c1.77 0.02 4.97 0.03 7.5 0.04 3.69 0.01 5.64-1.39 6.07-3.98 0.18-1.22 0.11-3.18-0.03-4.09-0.49-3.34-4.36-3.51-4.36-3.51zm-9.11-6.92c0 0 0.81 0 3.36 0 3.52 0 4.68 0.49 4.97 2.06 0.13 0.63 0.19 2.16-0.48 2.82-0.74 0.75-2.29 0.82-4.55 0.81-1.67-0.01-2.68 0.01-3.3 0zm8.53 14.45c-0.62 0.57-1.46 0.59-2.56 0.59-1.51-0.03-4.46 0-5.97 0v-5.89c1.14 0 3.13-0.02 5.14 0 1.18 0 2.45 0.14 3.32 0.83 0.56 0.44 0.82 1.28 0.82 2.09-0.01 0.97-0.23 1.89-0.75 2.38zm161.68 2.9c0.01-1.31 0-6.41 0-8.19 0-1.78-0.15-3.78-0.91-4.87-1.34-1.93-3.72-2.35-7.13-2.35-3.4 0-6.04 0-6.04 0 0 0 0.26 1.85 0.68 2.45 0.36 0.54 0.76 0.64 1.96 0.65 1.21 0.01 1.66 0 3.99 0 1.59 0 2.31 0.05 2.87 0.97 0.36 0.55 0.27 2.01 0.27 2.01 0 0-0.31-0.28-3.2-0.19-0.96 0.05-2.94 0.17-4.33 0.75-1.97 0.82-3.34 2.12-3.35 5.06-0.03 2.33 1.08 3.75 2.6 4.49 1.78 0.86 3.78 0.86 5.03 0.76 1.75-0.13 3.32-0.54 3.97-1.05 0 0 0.08 0.92 1.09 0.92 0.71 0 3.36 0 3.36 0 0 0-0.86-0.5-0.86-1.41zm-4.33-3.06c0 1.25-1.52 1.74-3.1 1.79-1.06 0.02-3.57-0.06-3.43-2.79 0.08-1.57 1.86-2.27 3.01-2.37 2.34-0.22 3.52 0.11 3.52 0.11 0 0.72 0 2.6 0 3.26zm-103.99-5.61h-4.13c-0.15 0.6-0.63 1.72-1.01 2.29-0.2-0.24-3.74-4.34-3.93-4.58 0.45-0.28 1.95-1.23 2.68-2.04q1.14-1.32 1.18-2.72 0-0.05 0-0.13c0.01-1.36-0.16-2.47-1.29-3.49-1.05-0.96-2.82-1.4-4.59-1.42-1.87-0.02-3.57 0.21-4.68 1.15-1.11 0.95-1.48 2.45-1.48 3.98q-0.02 1.41 0.8 2.78 0.39 0.7 1.22 1.63c-0.17 0.08-0.49 0.26-0.49 0.26-1.37 0.75-3.92 1.64-4.22 4.99-0.03 0.19 0.02 1.36 0.05 1.54 0.26 1.84 0.78 2.96 2.09 4.14 1.23 1.13 3.75 1.3 6 1.3 3.78 0 5.67-1.57 5.86-1.75 0.15 0.16 1.61 1.86 1.61 1.86h5.85c0 0-3.81-4.27-3.97-4.43 1.29-1.43 2.35-3.8 2.45-5.36zm-12.57-8.74c0.31-0.33 0.86-0.43 1.46-0.43q0.89 0.02 1.37 0.51c0.32 0.34 0.42 0.83 0.33 1.34-0.06 0.35-0.16 0.64-0.37 0.92-0.23 0.31-0.42 0.63-0.87 0.94 0 0-0.61 0.42-0.87 0.57-0.48-0.57-0.82-1.01-0.97-1.26-0.31-0.45-0.4-0.87-0.45-1.23q-0.08-0.86 0.37-1.36zm1.3 15.31c-1.22-0.05-3.26-0.48-3.75-3.1-0.14-0.69 0.07-1.39 0.24-1.76 0.5-1.11 1.57-1.62 1.9-1.78 0.12 0.15 4.59 5.4 4.78 5.6-0.74 0.59-1.95 1.08-3.17 1.04zm48.66-8.42c0.02-3.28-1.32-4.56-3.09-4.79-1.28-0.16-3.61-0.19-5.33 0.27-0.74 0.21-1.49 0.69-1.69 0.82v-5.32c0-0.83-0.55-1.27-1.32-1.27h-4.03c0 0 1.03 0.92 1.03 2.49v1.05c0 13.59 0 18.4 0 18.4 0 0 1.55-0.01 2.64 0h0.13c0.86 0 1.55-0.69 1.55-1.54v-0.23c0 0 0-5.58 0-10.69 0.31-0.23 1.64-1.12 3.31-1.08 0.83 0.02 1.55 0.12 1.95 0.58 0.52 0.57 0.54 2.27 0.54 3.09 0 0.82 0.01 9.87 0.01 9.87 0 0 1.54-0.01 2.63 0h0.14c0.84 0 1.53-0.69 1.53-1.54v-0.23c0 0 0-6.77 0-7.54zm17.05 10.52c0-1.3 0-6.41 0-8.19 0-1.78-0.15-3.78-0.91-4.87-1.34-1.93-3.73-2.35-7.12-2.35-3.41 0-6.05 0-6.05 0 0 0 0.25 1.86 0.66 2.45 0.38 0.54 0.77 0.64 1.99 0.65 1.2 0.01 1.64 0 3.98 0 1.59 0 2.31 0.06 2.87 0.97 0.34 0.55 0.26 2.01 0.26 2.01 0 0-0.31-0.28-3.19-0.18-0.96 0.04-2.96 0.16-4.34 0.74-1.98 0.83-3.34 2.13-3.36 5.06-0.01 2.33 1.09 3.75 2.61 4.49 1.78 0.87 3.78 0.86 5.04 0.76 1.75-0.13 3.3-0.54 3.97-1.05 0 0 0.09 0.92 1.08 0.92 0.71 0 3.38 0 3.38 0 0 0-0.88-0.5-0.87-1.41zm-4.34-3.06c0 1.25-1.52 1.74-3.09 1.79-1.06 0.02-3.58-0.06-3.44-2.79 0.08-1.57 1.87-2.27 3-2.37 2.35-0.21 3.53 0.11 3.53 0.11 0 0.72 0.01 2.6 0 3.26zm-40.22-17.75h-6.82c0 0 1.03 0.92 1.03 2.49v1.05c0 13.59 0 18.4 0 18.4 0 0 1.55-0.01 2.64 0h0.13c0.85 0 1.55-0.69 1.55-1.54v-0.23-6.79h1.47c8.6 0 11.12-0.48 11.2-6.25 0-0.1 0-0.77 0-0.88-0.08-5.77-2.6-6.25-11.2-6.25zm6.87 7.82c-0.31 1.56-1.22 2.05-5.1 2.07q-2.92 0.01-3.24 0.01v-6.41q0.32 0 3.24 0.01c3.88 0.01 4.79 0.51 5.1 2.07 0.03 0.24 0.04 1.14 0.04 1.14 0.03 0.44-0.01 0.85-0.04 1.11zm74.74 2.3c0-3.59-1.29-4.56-3.02-4.79-1.24-0.17-2.65-0.19-4.31 0.27-1.7 0.48-2.21 1.35-2.21 1.35l-0.04 0.06c-0.53-1.12-1.41-1.54-2.48-1.68-1.23-0.17-2.64-0.19-4.31 0.27-1.71 0.48-2.21 1.35-2.21 1.35 0 0-0.01-1.56-1.39-1.57-0.61 0-1.28 0-1.83 0-0.72 0-1.27 0-1.27 0 0 0 0.81 0.67 0.81 1.92q0 0.15 0 0.67c-0.01 2.97 0 13.97 0 13.97 0 0 1.5-0.01 2.57 0h0.12c0.83 0 1.49-0.69 1.49-1.54v-0.23c0-1.31 0-10.8 0-10.8 0 0 1.43-1.16 3.29-1.14 1.2 0.02 1.57 0.36 1.57 2.91 0 1.15 0 10.8 0 10.8 0 0 1.45-0.01 2.33 0l0.38-0.01c0.8 0 1.48-0.68 1.48-1.52v-0.31-9.98q0-0.4-0.02-0.77l0.02 0.02c0 0 1.41-1.16 3.28-1.14 1.19 0.02 1.56 0.36 1.56 2.91 0 1.15 0 10.8 0 10.8 0 0 1.46-0.01 2.34 0l0.37-0.01c0.83 0 1.49-0.68 1.49-1.52l-0.01-0.31zm-28.64-4.56c-1.72 0.61-2.19 1.39-2.19 1.39 0 0 0-1.56-1.42-1.56-0.63 0-1.32 0-1.91 0-0.72 0-1.27 0-1.27 0 0 0 0.83 0.67 0.82 1.91 0 0.99 0 14.65 0 14.65 0 0 1.54-0.01 2.63 0h0.12c0.86 0 1.56-0.69 1.56-1.55v-0.22c0-1.32 0-10.8 0-10.8v-0.02c0.07-0.06 1.49-1.09 3.34-1.12 1.44-0.03 2.45 0.74 2.47 0.77l0.02-3.43c-1.03-0.47-2.7-0.55-4.17-0.02zm-94.2-0.53c-7.85 0-8.24 5.82-8.25 8.58v0.03 0.01c-0.01 2.78 0.39 8.69 8.15 8.69 7.77 0 8.23-5.81 8.25-8.6v-0.02c0.01-2.78-0.3-8.69-8.15-8.69zm3.86 8.68c-0.01 0.97-0.14 5.53-3.95 5.52-3.79-0.03-3.87-4.6-3.87-5.57 0.01-0.97 0.13-5.52 3.94-5.52 3.82 0.05 3.88 4.6 3.88 5.57z"/>
			<path id="&lt;Compound Path&gt;" class="s2" d="m370.17 269.37c-7.75 0-8.13 5.82-8.16 8.6v0.01 0.02c0 2.76 0.39 8.68 8.06 8.68 7.68 0 8.13-5.82 8.14-8.6q0 0 0-0.01v-0.02c0.02-2.77-0.29-8.68-8.04-8.68zm3.79 8.68c0 0.96-0.11 5.52-3.88 5.5-3.76-0.02-3.83-4.58-3.83-5.55 0.01-0.97 0.14-5.51 3.89-5.51 3.77 0.03 3.85 4.6 3.82 5.56z"/>
			<path id="&lt;Path&gt;" class="s2" d="m357.61 279.65c-0.94 0-1.56 0.63-1.77 0.94-0.85 1.26-2.2 2.22-4.42 2.22-5.6-0.04-5.44-6.27-5.44-7.59 0.03-1.33-0.06-7.56 5.54-7.55 2.52 0.01 3.92 1.3 4.72 2.83h4.5c-0.88-3.16-3.18-6.27-9.22-6.27-9.37 0-10.19 7.41-10.21 10.93v0.04c-0.02 3.52 0.8 11.05 10.09 11.05 6.24 0 8.54-3.34 9.39-6.6 0 0-2.26 0-3.18 0z"/>
			<path id="&lt;Path&gt;" class="s2" d="m397.54 282.82v-18.48h-5.33c0 0 1.01 0.92 1.01 2.49v1.06c0 13.58 0 18.39 0 18.39 0 0 0.65 0 1.4 0h13.86v-3.46z"/>
			<path id="&lt;Path&gt;" class="s2" d="m419.55 282.35c-0.51 0.34-1.65 0.95-3.04 0.94-0.85-0.03-1.68-0.22-2.09-0.7-0.45-0.53-0.44-1.47-0.44-2.63 0-1.14 0-15.63 0-15.63 0 0-4.31 0.53-4.31 2.1 0 1.14 0 14.95 0 14.95 0 3.6 1.31 4.57 3.1 4.81 1.28 0.16 3.62 0.19 5.33-0.28 0.63-0.17 1.11-0.41 1.45-0.62z"/>
			<path id="&lt;Compound Path&gt;" class="s2" d="m407.92 273.04c0.76 0.01 10.38 0.01 11.19 0.01v-3.11c-2.72 0-13.84 0-13.84 0 0 0 0.27 1.86 0.68 2.45 0.36 0.54 0.76 0.65 1.97 0.65z"/>
			<path id="&lt;Compound Path&gt;" class="s2" d="m434.92 264.34h-4.03c0 0 1.02 0.92 1.02 2.49v1.06c0 0.91 0 3.1 0 3.1 0 0-1.26-1.24-3.32-1.31-6.71-0.26-8.15 5.7-8.17 8.43v0.03c0 3.14 1.55 8.88 8 8.41 2.39-0.18 3.5-1.44 3.5-1.44v1.17c0 0 1.54 0 2.64 0h0.13c0.85 0 1.54-0.69 1.54-1.54v-0.23c0 0 0-5.59 0-10.69v-8.21c0-0.82-0.55-1.27-1.31-1.27zm-6.41 19.28c-3.78-0.03-3.85-4.52-3.84-5.47 0.01-0.96 0.13-5.43 3.89-5.42 1.92 0.01 3.35 1.48 3.35 2.99 0 1.51 0.01 2.83 0.01 4.49 0 1.67-1.46 3.41-3.41 3.41z"/>
			<path id="&lt;Path&gt;" class="s2" d="m390.21 283.42l-3.79 6.5-1.83-0.8 2.47-7.02z"/>
			<path id="&lt;Path&gt;" class="s2" d="m383.69 286.23h-3.48v-3.47h3.48z"/>
			<path id="&lt;Path&gt;" class="s2" d="m443.2 286.23h-3.47v-3.47h3.47z"/>
			<path id="&lt;Path&gt;" class="s0" d="m143.78 250.84c-1.34-9.18-6.07-17.81-12.61-25.42 1.65 2.78 2.76 5.66 3.23 8.57 2.49 15.47-4.18 23.95-10.31 28.27-3.9 2.75-8.08 4.45-12.12 5.45q-0.44 0.13-0.88 0.24-0.23 0.05-0.44 0.1-2.03 0.46-4.39 0.68-0.58 0.05-1.14 0.1h-0.06q-0.94 0.07-1.83 0.1-0.97 0.01-1.91-0.03h-34.25c4.7-12.01 10.63-27.18 18.47-47.16q-0.09-0.02-0.18-0.07c0 0-0.34-0.15-0.36-0.15-3.73-1.48-12.06-4.75-19.81-5.6l-17.85 45.54v-0.01c-3.03 7.77-5.96 15.28-5.96 15.28q-0.74 1.73-0.75 3.73c0 5.35 4.37 9.68 9.76 9.68h49.78c17.11 0 29.51-4.25 36.88-12.65 3.28-3.74 6.8-9.79 7.18-18.75q0.18-3.62-0.45-7.9z"/>
		</g>
	</g>
</svg>