<svg version="1.2" xmlns="http://www.w3.org/2000/svg" viewBox="32 175 118 125" width="118" height="125">
	<style>
		.s0 { fill: #2d7dc0 } 
		.s1 { fill: #87c77b } 
		.s2 { fill: #57585a } 
	</style>
	<g id="Layer 1">
		<g id="&lt;Group&gt;">
			<path id="&lt;Path&gt;" class="s0" d="m74.46 192.1c9.82 1.47 16.65 4.05 19.92 5.28l0.51 0.19c0.6-1.58 1.36-3.57 1.89-4.99 1.08-2.9 1.63-3.38 2.8-4.47 0.7-0.65 0.43-1.53-0.66-1.53h-23.15c-0.83 0-1.16 0.58-0.91 1.35 0.27 0.8 0.51 1.81-0.06 3.33q-0.16 0.4-0.34 0.84z"/>
			<path id="&lt;Compound Path&gt;" class="s1" d="m56.11 228.56c1.36 0.85 2.4 1.4 2.68 1.18 0.25-0.15 0.04-0.33-0.27-0.65-0.44-0.49-0.56-0.59-1.59-1.79-6.54-7.5-4.74-12.45 0.46-13.41 9.27-1.72 22.16 3.16 28.41 5.63q0.26 0.11 0.51 0.21 0-0.02 0-0.02c9.38 3.81 18.9 10.06 25.8 17.23 5.15 5.34 8.83 11.21 9.93 16.97 0.55 3 0.08 5.69-1.33 7.97q1.1-0.66 2.15-1.38c4.74-3.33 9.91-9.43 9.91-20.11q0-2.8-0.49-6.05c-0.44-2.6-1.18-4.45-2.88-8.15-1.05-2.32-3.44-6.08-6.35-8.93-8.65-7.62-18.86-13.69-28.46-17.5q-0.15-0.06-0.31-0.12-0.03-0.02-0.07-0.02c-3.01-1.13-9.87-3.88-20.13-5.41q-0.56-0.07-1.11-0.14c-6.68-0.72-13.36-0.2-18.61 2.91-4.75 2.82-7.76 7.31-8.49 12.62-0.09 0.63-0.16 1.23-0.16 1.85-0.08 6.81 4.55 13.31 10.4 17.11z"/>
			<path id="&lt;Path&gt;" class="s2" d="m443.2 286.23h-3.47v-3.47h3.47z"/>
			<path id="&lt;Path&gt;" class="s0" d="m143.78 250.84c-1.34-9.18-6.07-17.81-12.61-25.42 1.65 2.78 2.76 5.66 3.23 8.57 2.49 15.47-4.18 23.95-10.31 28.27-3.9 2.75-8.08 4.45-12.12 5.45q-0.44 0.13-0.88 0.24-0.23 0.05-0.44 0.1-2.03 0.46-4.39 0.68-0.58 0.05-1.14 0.1h-0.06q-0.94 0.07-1.83 0.1-0.97 0.01-1.91-0.03h-34.25c4.7-12.01 10.63-27.18 18.47-47.16q-0.09-0.02-0.18-0.07c0 0-0.34-0.15-0.36-0.15-3.73-1.48-12.06-4.75-19.81-5.6l-17.85 45.54v-0.01c-3.03 7.77-5.96 15.28-5.96 15.28q-0.74 1.73-0.75 3.73c0 5.35 4.37 9.68 9.76 9.68h49.78c17.11 0 29.51-4.25 36.88-12.65 3.28-3.74 6.8-9.79 7.18-18.75q0.18-3.62-0.45-7.9z"/>
		</g>
	</g>
</svg>